# xmcd
#
# Track frame offsets: 
#        150
#        22200
#        42375
#        63300
#        101200
#        121425
#        133425
#        158812
#        178725
#        225000
#        266325
#        284700
#        302975
#
# Disc length: 4319 seconds
#
# Revision: 5
# Processed by: cddbd v1.5.2PL0 Copyright (c) Steve Scherf et al.
# Submitted via: ExactAudioCopyFreeDBPlugin 1.0
#
DISCID=c210dd0d
DTITLE=Various Artist - Mr Bluesman - soundtrack CD2
DYEAR=1993
DGENRE=Blues
TTITLE0=L.A. Blues Authority - How Blue Can You Get?
TTITLE1=Rory Gallagher - Loanshark Blues
TTITLE2=Allman Brothers Band - End Of The Line
TTITLE3=B.B. King - There Is Always One More Time
TTITLE4=Buddy Guy - Damn Right, I've Got The Blues
TTITLE5=John Lee Hooker - Boom Boom
TTITLE6=Gary Moore Band - Boogie My Way Back Home
TTITLE7=Muddy Waters - Jealous Hearted Man
TTITLE8=Albert King - Blues Power
TTITLE9=Stevie Ray Vaughan - Tin Pan Alley
TTITLE10=Chris Jones - Drive A Truck
TTITLE11=Chris Jones - Where Are You Going
TTITLE12=Chris Jones - Never Get Enough Of You
EXTD=
EXTT0=
EXTT1=
EXTT2=
EXTT3=
EXTT4=
EXTT5=
EXTT6=
EXTT7=
EXTT8=
EXTT9=
EXTT10=
EXTT11=
EXTT12=
PLAYORDER=
